<?xml version="1.0"?>
<svg xmlns="http://www.w3.org/2000/svg" xmlns:xlink="http://www.w3.org/1999/xlink" viewBox="0 0 512 512" width="512" height="512"><linearGradient id="a" gradientUnits="userSpaceOnUse" x1="256" x2="256" y1="26" y2="474.071"><stop offset="0" stop-color="#00efd1"/><stop offset="1" stop-color="#00acea"/></linearGradient><linearGradient id="b" x1="256" x2="256" xlink:href="#a" y1="26" y2="474.071"/><path d="m256 62.265c-106.826 0-193.735 86.909-193.735 193.735s86.909 193.735 193.735 193.735 193.735-86.909 193.735-193.735-86.909-193.735-193.735-193.735zm0 367.47c-95.8 0-173.735-77.935-173.735-173.735s77.935-173.735 173.735-173.735 173.735 77.935 173.735 173.735-77.935 173.735-173.735 173.735z" fill="url(#a)"/><path d="m335.054 169.024a10 10 0 0 0 -14.143 0l-93.791 93.792-36.036-35.991a10 10 0 0 0 -14.138 0l-29.446 29.454a10 10 0 0 0 0 14.142l72.556 72.556a10 10 0 0 0 14.143 0l130.301-130.363a10 10 0 0 0 0-14.14zm-107.931 152.738-58.413-58.412 15.311-15.312 36.037 35.991a10 10 0 0 0 14.137 0l93.787-93.787 15.309 15.309z" fill="url(#b)"/></svg>
